<?xml version="1.0" encoding="UTF-8"?>
<svg version="1.1" xmlns="http://www.w3.org/2000/svg" width="735" height="730">
<path d="M0 0 C242.55 0 485.1 0 735 0 C735 240.9 735 481.8 735 730 C492.45 730 249.9 730 0 730 C0 489.1 0 248.2 0 0 Z " fill="#000000" transform="translate(0,0)"/>
<path d="M0 0 C242.55 0 485.1 0 735 0 C735 240.9 735 481.8 735 730 C492.45 730 249.9 730 0 730 C0 489.1 0 248.2 0 0 Z M121.0625 64.8125 C120.36302246 65.16505859 119.66354492 65.51761719 118.94287109 65.88085938 C113.68737449 68.57022889 108.73829706 71.46436231 104 75 C102.89398438 75.80244141 102.89398438 75.80244141 101.765625 76.62109375 C76.19128245 96.05257951 59.00985537 123.43437476 54.39151502 155.35396051 C52.93779591 168.89192719 53.43158231 182.6739977 53.46244228 196.27010369 C53.46950164 201.31319346 53.45338582 206.35622117 53.44044495 211.39929199 C53.41891134 221.25213931 53.41890438 231.10487066 53.42707049 240.95773374 C53.43339532 248.97335077 53.43221081 256.98893423 53.42579842 265.00455093 C53.42489676 266.14961529 53.42399511 267.29467966 53.42306613 268.47444294 C53.42121474 270.80135091 53.41935218 273.12825888 53.41747857 275.45516683 C53.40093714 297.22709892 53.40958808 318.99896602 53.42646415 340.77089418 C53.44115739 360.64511339 53.42653142 380.51918136 53.39769398 400.3933811 C53.36823052 420.85304796 53.35734795 441.31264519 53.36687618 461.77233231 C53.36789863 464.09082737 53.36889324 466.40932245 53.3698597 468.72781754 C53.37033609 469.86825629 53.37081248 471.00869504 53.3713033 472.18369254 C53.37345828 480.17868058 53.36371238 488.173602 53.34908867 496.16857529 C53.33148537 505.92774304 53.33179671 515.68671816 53.35444032 525.44587861 C53.36551029 530.41494566 53.36891146 535.38367437 53.35013962 540.35272598 C53.26494004 564.68296195 53.37901945 588.50687627 64 611 C64.30389648 611.64598145 64.60779297 612.29196289 64.92089844 612.95751953 C78.09643393 640.50114866 101.3770196 662.81173556 130 674 C151.68321218 681.61357179 172.91617148 681.57463744 195.63553238 681.49358058 C200.60354368 681.48029354 205.57151892 681.49035213 210.53953552 681.49734497 C220.24581091 681.50737546 229.9519489 681.49621365 239.65820719 681.47764437 C250.98096108 681.45676938 262.30368608 681.45701957 273.62645559 681.45798953 C293.83888983 681.45898855 314.05126055 681.44072761 334.26367188 681.41162109 C353.84148312 681.38344335 373.41923851 681.36928009 392.99707031 681.37060547 C394.80644451 681.37072534 394.80644451 681.37072534 396.65237172 681.37084763 C397.85661236 681.37092834 399.06085301 681.37100905 400.30158579 681.3710922 C422.64400345 681.37247469 444.98639754 681.36067673 467.32880754 681.34278577 C475.20688306 681.33677367 483.08495421 681.33462911 490.96303177 681.33372116 C500.57226796 681.33235162 510.18146441 681.32334912 519.79068376 681.30505554 C524.68611062 681.29587309 529.58148695 681.28970863 534.47692299 681.29224396 C538.9699385 681.29445792 543.46284288 681.28725404 547.95583527 681.27294691 C549.56927119 681.26936485 551.18271876 681.26901521 552.79615493 681.27248149 C567.74362042 681.30100527 582.67012256 680.5798614 597 676 C597.72131104 675.80664062 598.44262207 675.61328125 599.18579102 675.4140625 C605.59192467 673.64633664 611.15297536 671.12520162 616.9375 667.875 C617.81067871 667.38854004 618.68385742 666.90208008 619.58349609 666.40087891 C626.37415907 662.53223581 632.2276313 658.28896836 638 653 C638.85722656 652.26007812 639.71445312 651.52015625 640.59765625 650.7578125 C655.52346721 637.74556705 666.0298816 622.47713381 673 604 C673.24621094 603.35981934 673.49242187 602.71963867 673.74609375 602.06005859 C682.09117766 579.84973054 680.29393698 555.42513532 680.26144934 532.08478868 C680.25688145 527.22102016 680.2639299 522.35726544 680.26940918 517.49349976 C680.27825919 507.99079844 680.27640081 498.48812889 680.2705839 488.98542637 C680.26604976 481.25534141 680.26546205 473.52526528 680.26763153 465.79517937 C680.267938 464.69103249 680.26824446 463.58688561 680.26856022 462.44927974 C680.26919973 460.20555377 680.26984816 457.96182781 680.2705054 455.71810185 C680.2761959 434.72406344 680.26967109 413.73004256 680.25890467 392.73600703 C680.24997157 374.76108901 680.2515217 356.78619684 680.26074219 338.8112793 C680.27146965 317.88907078 680.27564539 296.96687759 680.26951766 276.04466671 C680.26888063 273.80932327 680.26825188 271.57397984 680.26763153 269.3386364 C680.26732298 268.23908289 680.26701443 267.13952938 680.26669653 266.00665607 C680.26497691 258.29529728 680.26786882 250.58394829 680.27259064 242.87259102 C680.27822712 233.46144122 680.27662531 224.05032473 680.26602915 214.6391787 C680.26080924 209.84666389 680.25865206 205.05420442 680.26532745 200.26169014 C681.0442653 165.62132447 681.0442653 165.62132447 674 132 C673.65195312 131.01257813 673.30390625 130.02515625 672.9453125 129.0078125 C661.3977062 98.98403613 637.28689082 76.10867279 608.48046875 62.9453125 C602.26586103 60.1976472 596.14383629 57.87150768 589.5 56.375 C588.4584375 56.13523438 587.416875 55.89546875 586.34375 55.6484375 C580.04406524 54.42676966 573.97512024 53.87493837 567.56183338 53.86577892 C566.5013468 53.86225058 566.5013468 53.86225058 565.41943625 53.85865095 C563.06238933 53.85202087 560.7053983 53.85241735 558.3483429 53.85282898 C556.6363624 53.8495266 554.92438269 53.84580025 553.21240395 53.8416875 C548.51656418 53.83170166 543.82073718 53.82795622 539.1248883 53.82529819 C534.05640809 53.8213849 528.9879379 53.81180721 523.91946411 53.80308533 C511.68232373 53.78334857 499.44518256 53.77325769 487.20803025 53.76435754 C481.43828435 53.75996957 475.66853936 53.75460404 469.89879417 53.74936867 C450.70615104 53.73235825 431.51350847 53.71786595 412.32085896 53.71061993 C407.34338187 53.70871018 402.3659048 53.70678983 397.38842773 53.70483398 C396.15137391 53.70435024 394.91432008 53.7038665 393.63977977 53.7033681 C373.61791435 53.69507476 353.59610881 53.66974874 333.57426951 53.63725331 C312.99525782 53.60412729 292.4162765 53.58616611 271.83723801 53.58297569 C260.29229053 53.58081559 248.74743034 53.57214054 237.20250893 53.54651451 C227.36651705 53.52473159 217.53063367 53.51679423 207.69462041 53.52648129 C202.68339398 53.53100423 197.67239105 53.52925767 192.66119576 53.50971985 C155.77561197 53.32072309 155.77561197 53.32072309 121.0625 64.8125 Z " fill="#FEFEFE" transform="translate(0,0)"/>
<path d="M0 0 C2.12348991 0.95794406 3.92271509 1.91959988 5.80444336 3.29101562 C6.79927734 4.00547852 6.79927734 4.00547852 7.81420898 4.734375 C8.86898437 5.51071289 8.86898437 5.51071289 9.94506836 6.30273438 C11.47094905 7.40321803 12.99699532 8.50347213 14.52319336 9.60351562 C15.68818359 10.44970459 15.68818359 10.44970459 16.87670898 11.31298828 C20.45962343 13.90509256 24.07776237 16.44646774 27.69506836 18.99023438 C29.11584453 19.99255049 30.53641703 20.99515538 31.95678711 21.99804688 C33.00938721 22.74103027 33.00938721 22.74103027 34.08325195 23.49902344 C36.1691923 24.97196259 38.25448351 26.44581619 40.33959961 27.91992188 C48.79480051 33.89577815 57.26775693 39.84558576 65.75292969 45.77880859 C71.07639476 49.50272284 76.39024 53.23982661 81.69506836 56.99023438 C87.78842546 61.2974219 93.89376817 65.58711335 100.00756836 69.86523438 C100.83836914 70.44684326 101.66916992 71.02845215 102.52514648 71.62768555 C106.84220341 74.64871006 111.16270663 77.6646601 115.48803711 80.67382812 C128.4291891 89.68564151 141.08781219 98.86830785 153.19506836 108.99023438 C153.73389648 109.43206055 154.27272461 109.87388672 154.82788086 110.32910156 C173.94527627 126.00929403 189.48525334 144.7956022 202.19506836 165.99023438 C202.75919434 166.92319336 202.75919434 166.92319336 203.3347168 167.875 C208.97784172 177.28809186 213.55281823 186.88845266 217.48120117 197.13330078 C218.09559848 198.73149022 218.73299589 200.32080347 219.37475586 201.90820312 C227.86151481 223.65141114 231.86518523 251.69633214 223.05834961 273.84960938 C219.38365326 281.68587037 214.74292537 287.05122979 207.47241211 291.72070312 C206.823349 292.14871216 206.17428589 292.57672119 205.5055542 293.0177002 C204.11206343 293.9351322 202.71578484 294.84834146 201.31698608 295.75765991 C198.3341636 297.69677164 195.36499689 299.65637369 192.39460754 301.61445618 C190.87220987 302.61758089 189.34908318 303.61960004 187.82524109 304.62052917 C180.79761813 309.23819797 173.83165065 313.94298594 166.88256836 318.67773438 C165.75419638 319.44570559 164.62577846 320.21360933 163.49731445 320.98144531 C161.80492396 322.13304545 160.11260233 323.28474537 158.42062378 324.43695068 C154.08869083 327.38589983 149.74838094 330.32231435 145.40600586 333.25585938 C143.47895613 334.55890573 141.55203114 335.86213633 139.62515259 337.16543579 C138.39530413 337.99668931 137.16498934 338.82725337 135.93417358 339.65707397 C134.22946539 340.80656947 132.52654833 341.9586744 130.82397461 343.11132812 C129.85532471 343.76544678 128.8866748 344.41956543 127.88867188 345.09350586 C125.2346966 346.96232974 122.70674378 348.93527911 120.19506836 350.99023438 C119.53506836 350.66023438 118.87506836 350.33023437 118.19506836 349.99023438 C118.64237305 349.55195313 119.08967773 349.11367188 119.55053711 348.66210938 C129.50826174 338.21605283 132.58249113 324.97513634 132.44506836 310.92773438 C132.43685059 309.90695801 132.42863281 308.88618164 132.42016602 307.83447266 C132.09139658 285.46047549 126.04553899 264.97197066 116.19506836 244.99023438 C115.8510498 244.28447266 115.50703125 243.57871094 115.15258789 242.8515625 C107.39159527 227.0907775 97.84540633 212.16784354 86.19506836 198.99023438 C85.75759277 198.49249512 85.32011719 197.99475586 84.86938477 197.48193359 C68.23699744 178.6642691 49.00357108 163.86831856 28.4621582 149.56884766 C25.21932176 147.3108054 21.98316074 145.04326163 18.74633789 142.77661133 C17.04579737 141.5859075 15.34495101 140.39564034 13.64379883 139.20581055 C4.78599363 133.00979034 -4.04205019 126.77194042 -12.8684082 120.53125 C-14.95115676 119.05887749 -17.03420559 117.58693121 -19.11743164 116.11523438 C-19.81191406 115.62450439 -20.50639648 115.13377441 -21.22192383 114.62817383 C-25.03676324 111.93521786 -28.85816403 109.25203605 -32.68774414 106.58007812 C-41.50975434 100.42462951 -50.29015285 94.22244179 -58.99365234 87.90039062 C-65.5748843 83.13043353 -72.2290831 78.46814977 -78.90649414 73.83398438 C-83.954002 70.32231361 -88.91309746 66.7158647 -93.80493164 62.99023438 C-89.49402744 58.23582151 -84.54051526 54.97675907 -79.17993164 51.49023438 C-77.03702352 50.07893397 -74.89508375 48.66624078 -72.75415039 47.25195312 C-71.85962914 46.66210884 -71.85962914 46.66210884 -70.94703674 46.06034851 C-62.53215967 40.50358205 -54.18007619 34.85297356 -45.82159424 29.21191406 C-43.06524441 27.35187 -40.30796302 25.49321394 -37.55053711 23.63476562 C-36.22523987 22.74052383 -36.22523987 22.74052383 -34.87316895 21.82821655 C-33.11722273 20.64409931 -31.36015517 19.46164309 -29.60192871 18.28091431 C-25.16998159 15.2973536 -20.77619925 12.27272123 -16.4284668 9.16748047 C-15.1331176 8.25182564 -15.1331176 8.25182564 -13.81159973 7.31767273 C-12.17268211 6.1563743 -10.54215787 4.98310791 -8.92167664 3.79621887 C-3.51965102 -0.01225399 -3.51965102 -0.01225399 0 0 Z " fill="#AF00FD" transform="translate(430.804931640625,156.009765625)"/>
<path d="M0 0 C0.495 0.99 0.495 0.99 1 2 C0.2575 2.66 -0.485 3.32 -1.25 4 C-10.27556378 13.10205161 -11.54495805 26.51267478 -11.5138855 38.65765381 C-11.50701218 39.72430267 -11.50701218 39.72430267 -11.5 40.8125 C-11.49823761 41.54132385 -11.49647522 42.27014771 -11.49465942 43.02105713 C-11.42716301 55.56783372 -9.98185251 67.06686246 -6 79 C-5.74299316 79.79470703 -5.48598633 80.58941406 -5.22119141 81.40820312 C-3.37158651 87.03536204 -1.26855857 92.52944754 1 98 C1.30856934 98.7542627 1.61713867 99.50852539 1.93505859 100.28564453 C9.87112062 119.30531911 21.76903387 136.29704529 35 152 C35.56879883 152.680625 36.13759766 153.36125 36.72363281 154.0625 C53.44203506 173.98410981 73.44425299 189.11965427 94.6875 203.97265625 C99.13538545 207.08475825 103.54025115 210.25438491 107.9375 213.4375 C108.68378662 213.97761719 109.43007324 214.51773438 110.19897461 215.07421875 C111.71078933 216.16886318 113.22242645 217.26375293 114.73388672 218.35888672 C118.48644785 221.07648163 122.24338045 223.78801939 126 226.5 C130.51391895 229.75869057 135.02687665 233.0186666 139.53515625 236.28515625 C146.82747964 241.56580422 154.1361012 246.8195134 161.5 252 C171.21481703 258.8343524 180.83100091 265.80308344 190.44775391 272.77441406 C192.88119338 274.53799838 195.31558216 276.30026657 197.75 278.0625 C198.48855225 278.59866943 199.22710449 279.13483887 199.98803711 279.68725586 C203.93864079 282.54665816 207.9215218 285.32590345 212 288 C210.65541307 292.0337608 208.79590748 292.71434536 205.23828125 295.0078125 C204.33009644 295.59856316 204.33009644 295.59856316 203.40356445 296.20124817 C201.37795035 297.51664471 199.34518345 298.82055967 197.3125 300.125 C195.88180427 301.05188823 194.45172155 301.97972328 193.0222168 302.90844727 C189.96073311 304.8968492 186.89700016 306.88172121 183.83203125 308.86474609 C176.45038076 313.64718427 169.10697938 318.48780993 161.76177979 323.32595825 C159.32335036 324.93036083 156.88246067 326.5309552 154.44091797 328.13061523 C147.61285553 332.60875101 140.80441384 337.10154924 134.1015625 341.765625 C133.12147217 342.44246338 132.14138184 343.11930176 131.1315918 343.81665039 C129.40057312 345.01871619 127.67965295 346.2355302 125.97192383 347.47045898 C120.74464488 351.09005008 120.74464488 351.09005008 117.48046875 350.6953125 C116.66191406 350.13585937 115.84335937 349.57640625 115 349 C114.41887451 348.60562744 113.83774902 348.21125488 113.23901367 347.80493164 C111.08405991 346.3081359 108.97984491 344.75392275 106.875 343.1875 C100.45687941 338.47495382 93.97305179 333.89445766 87.375 329.4375 C80.78858033 324.97639996 74.38310677 320.34216024 68.05810547 315.51928711 C62.98327899 311.67500829 57.77441809 308.06426808 52.5 304.5 C45.799026 299.97156792 39.27896458 295.27330066 32.84326172 290.37670898 C27.71828548 286.49428688 22.46785696 282.83420406 17.15087891 279.22094727 C9.65489278 274.11404345 2.32350917 268.78354976 -5.00976562 263.44677734 C-6.75884362 262.17530578 -8.51108198 260.90844386 -10.265625 259.64453125 C-29.46475585 245.78147169 -47.40163266 230.76256937 -62 212 C-62.4964502 211.37464355 -62.99290039 210.74928711 -63.50439453 210.10498047 C-71.14641688 200.47837522 -78.05016934 190.75756439 -84 180 C-84.40847168 179.27055176 -84.81694336 178.54110352 -85.23779297 177.78955078 C-100.83045417 149.77471647 -113.36428584 114.7388154 -105.4375 82.3125 C-100.49595106 65.55569045 -89.34191862 58.18154583 -75.14135742 49.47070312 C-68.10487263 45.13173661 -61.24198098 40.53766605 -54.375 35.9375 C-41.99689217 27.64925013 -29.57398696 19.43141932 -17.125 11.25 C-16.26783386 10.68658905 -15.41066772 10.1231781 -14.52752686 9.54269409 C-9.68584604 6.36053405 -4.84331291 3.17967536 0 0 Z " fill="#BEC1FA" transform="translate(195,242)"/>
<path d="M0 0 C3.8156083 2.14152702 7.53248383 4.24910567 11.05859375 6.84765625 C11.7659668 7.36481201 12.47333984 7.88196777 13.20214844 8.41479492 C13.93981445 8.9585376 14.67748047 9.50228027 15.4375 10.0625 C21.31929829 14.35640647 27.2343174 18.58314231 33.25 22.6875 C34.55873768 23.58442544 35.86733316 24.4815584 37.17578125 25.37890625 C39.08501257 26.68813505 40.99479769 27.99645412 42.90771484 29.30029297 C56.06978209 38.30340604 66.90852737 47.37027518 72 63 C72.99349177 68.8451448 73.48518071 73.74252531 70.14453125 78.8203125 C68 81 68 81 64.9375 81.6875 C53.82792607 79.74773312 44.3508931 71.15831045 35.38134766 64.70458984 C31.19418929 61.70738462 26.97088204 58.76192534 22.75 55.8125 C21.97148682 55.26722656 21.19297363 54.72195313 20.39086914 54.16015625 C19.23059204 53.34804688 19.23059204 53.34804688 18.046875 52.51953125 C17.26272217 51.945979 16.47856934 51.37242676 15.6706543 50.78149414 C12.94379153 48.87792915 12.94379153 48.87792915 9.52661133 47.29467773 C5.81030065 45.37578376 2.43536758 43.48684352 0 40 C-2.08707167 33.41243486 -1.22141363 26.22878987 -0.8125 19.4375 C-0.74721309 17.55163177 -0.68791093 15.66554631 -0.63476562 13.77929688 C-0.49223532 9.18079204 -0.26848273 4.59280219 0 0 Z " fill="#AC00F9" transform="translate(413,341)"/>
<path d="M0 0 C8.05339614 0.43063362 14.911022 6.05161652 21.3125 10.5 C22.13991699 11.07032959 22.96733398 11.64065918 23.81982422 12.22827148 C29.77806695 16.36318002 35.70610968 20.55850304 41.35742188 25.1081543 C44.81610512 27.85210712 47.98426147 29.88247452 52.0859375 31.546875 C57.42860957 33.96298091 61.61461896 36.08462716 64.3125 41.5 C66.99475824 54.02360489 65.3196401 67.84558088 64.3125 80.5 C61.17246817 79.32446637 58.46307862 78.08936855 55.73828125 76.13671875 C55.07973145 75.6684668 54.42118164 75.20021484 53.74267578 74.71777344 C53.04384277 74.2127832 52.34500977 73.70779297 51.625 73.1875 C50.51874268 72.39714355 50.51874268 72.39714355 49.39013672 71.59082031 C47.02674322 69.89962117 44.66918749 68.20052874 42.3125 66.5 C40.7357096 65.36584021 39.15888689 64.23172534 37.58203125 63.09765625 C33.81253463 60.38331923 30.05085405 57.65835619 26.29101562 54.93066406 C24.53753584 53.66272335 22.77858325 52.40314565 21.015625 51.1484375 C18.42451276 49.29457543 15.85917985 47.41431171 13.3125 45.5 C12.61125 44.97792969 11.91 44.45585937 11.1875 43.91796875 C2.58231706 37.0102926 -5.06641778 26.58611066 -6.6875 15.5 C-7.55975629 6.0442362 -7.55975629 6.0442362 -5.39453125 2.2109375 C-3.6875 0.5 -3.6875 0.5 0 0 Z " fill="#BCBFF8" transform="translate(267.6875,326.5)"/>
<path d="M0 0 C0 26.4 0 52.8 0 80 C-0.66 80 -1.32 80 -2 80 C-2 79.34 -2 78.68 -2 78 C-2.5882959 77.71874268 -3.1765918 77.43748535 -3.78271484 77.14770508 C-5.81753864 76.09444515 -7.61125615 74.96129994 -9.4765625 73.63671875 C-10.1380127 73.1687085 -10.79946289 72.70069824 -11.48095703 72.21850586 C-12.18849121 71.71327393 -12.89602539 71.20804199 -13.625 70.6875 C-14.36991699 70.15842041 -15.11483398 69.62934082 -15.88232422 69.08422852 C-22.81159629 64.15409126 -29.71729473 59.191026 -36.59375 54.1875 C-39.53122001 52.05210514 -42.48969625 49.95194592 -45.46875 47.875 C-46.16983887 47.37943604 -46.87092773 46.88387207 -47.59326172 46.37329102 C-48.91564683 45.43878647 -50.24512322 44.5142106 -51.58251953 43.60131836 C-53.3515625 42.33984375 -53.3515625 42.33984375 -56 40 C-56 38.68 -56 37.36 -56 36 C-54.07348633 34.28686523 -54.07348633 34.28686523 -51.33203125 32.55859375 C-50.30650146 31.90109131 -49.28097168 31.24358887 -48.22436523 30.56616211 C-47.08718838 29.8564293 -45.94989699 29.14687998 -44.8125 28.4375 C-43.65277603 27.70014299 -42.49401738 26.96126574 -41.33618164 26.22094727 C-39.50397691 25.05016802 -37.67092553 23.88089053 -35.83439636 22.71690369 C-31.14263779 19.74272167 -26.48930943 16.7138859 -21.8515625 13.65625 C-21.18740829 13.21861832 -20.52325409 12.78098663 -19.838974 12.33009338 C-17.22144053 10.60451371 -14.60459095 8.87790013 -11.9881897 7.15060425 C-10.1693447 5.95106576 -8.34858345 4.75449213 -6.52734375 3.55859375 C-4.96101196 2.52690063 -4.96101196 2.52690063 -3.36303711 1.47436523 C-1 0 -1 0 0 0 Z " fill="#BABDF6" transform="translate(333,221)"/>
<path d="M0 0 C7.86302473 4.49315699 7.86302473 4.49315699 10.953125 6.77734375 C11.64510986 7.28426758 12.33709473 7.79119141 13.05004883 8.31347656 C13.77603271 8.8494043 14.5020166 9.38533203 15.25 9.9375 C23.97989117 16.31392659 32.86807074 22.43287322 41.80957031 28.50732422 C45.11380902 30.75900896 48.40207901 33.03347812 51.6875 35.3125 C52.72261719 36.03050781 53.75773437 36.74851562 54.82421875 37.48828125 C55.54222656 37.98714844 56.26023437 38.48601562 57 39 C55.82418467 42.52744598 55.04019996 42.91790246 52.00610352 44.89160156 C51.15754288 45.44938293 50.30898224 46.00716431 49.43470764 46.58184814 C48.50879318 47.17874451 47.58287872 47.77564087 46.62890625 48.390625 C45.67741196 49.01346375 44.72591766 49.63630249 43.74559021 50.27801514 C40.6895218 52.27640173 37.62632227 54.26352617 34.5625 56.25 C31.53231559 58.22441225 28.50365344 60.20113067 25.47581482 62.17913818 C23.5908368 63.4094736 21.70426588 64.63737342 19.81581116 65.86236572 C14.44975838 69.35265871 9.19351808 72.95318934 4.01133728 76.71209717 C2 78 2 78 0 78 C0 52.26 0 26.52 0 0 Z " fill="#AE00FC" transform="translate(414,449)"/>
<path d="M0 0 C0.33 0.66 0.66 1.32 1 2 C1.66 2.33 2.32 2.66 3 3 C0.36 4.98 -2.28 6.96 -5 9 C-5.66 8.67 -6.32 8.34 -7 8 C-4.69 5.36 -2.38 2.72 0 0 Z " fill="#7700AD" transform="translate(556,498)"/>
</svg>
